G04 DipTrace 2.4.0.2*
%INBottomSilk.GBO*%
%MOIN*%
%FSLAX44Y44*%
G04*
G70*
G90*
G75*
G01*
%LNBotSilk*%
%LPD*%
G36*
X5440Y5880D2*
X5280Y5506D1*
X5276Y5508D1*
X5272Y5510D1*
X5268Y5512D1*
X5264Y5514D1*
X5260Y5516D1*
X5256Y5518D1*
X5252Y5520D1*
X5248Y5522D1*
X5244Y5524D1*
X5240Y5526D1*
X5236Y5528D1*
X5233Y5531D1*
X5229Y5533D1*
X5225Y5535D1*
D1*
X5076Y5414D1*
X4975Y5516D1*
X5096Y5664D1*
X5091Y5672D1*
X5087Y5680D1*
X5082Y5688D1*
X5078Y5696D1*
X5074Y5704D1*
X5070Y5712D1*
X5067Y5720D1*
X5063Y5728D1*
X5060Y5737D1*
X5057Y5745D1*
X5054Y5754D1*
X5051Y5762D1*
X5049Y5771D1*
X5046Y5780D1*
X5044Y5788D1*
D1*
X4854Y5808D1*
Y5952D1*
X5044Y5971D1*
X5046Y5980D1*
X5049Y5988D1*
X5051Y5997D1*
X5054Y6006D1*
X5057Y6014D1*
X5060Y6022D1*
X5063Y6031D1*
X5067Y6039D1*
X5070Y6047D1*
X5074Y6055D1*
X5078Y6063D1*
X5082Y6071D1*
X5087Y6079D1*
X5091Y6087D1*
X5096Y6095D1*
D1*
X4975Y6243D1*
X5076Y6345D1*
X5225Y6224D1*
X5233Y6229D1*
X5240Y6233D1*
X5248Y6237D1*
X5256Y6242D1*
X5264Y6246D1*
X5272Y6249D1*
X5280Y6253D1*
X5289Y6256D1*
X5297Y6260D1*
X5306Y6263D1*
X5314Y6266D1*
X5323Y6268D1*
X5331Y6271D1*
X5340Y6273D1*
X5349Y6275D1*
D1*
X5368Y6466D1*
X5512D1*
X5531Y6275D1*
X5540Y6273D1*
X5549Y6271D1*
X5557Y6268D1*
X5566Y6266D1*
X5574Y6263D1*
X5583Y6260D1*
X5591Y6256D1*
X5600Y6253D1*
X5608Y6249D1*
X5616Y6246D1*
X5624Y6242D1*
X5632Y6237D1*
X5640Y6233D1*
X5647Y6229D1*
X5655Y6224D1*
D1*
X5804Y6345D1*
X5905Y6243D1*
X5784Y6095D1*
X5789Y6087D1*
X5793Y6079D1*
X5798Y6071D1*
X5802Y6063D1*
X5806Y6055D1*
X5810Y6047D1*
X5813Y6039D1*
X5817Y6031D1*
X5820Y6022D1*
X5823Y6014D1*
X5826Y6006D1*
X5829Y5997D1*
X5831Y5988D1*
X5834Y5980D1*
X5836Y5971D1*
D1*
X6026Y5952D1*
Y5808D1*
X5836Y5788D1*
X5834Y5780D1*
X5831Y5771D1*
X5829Y5762D1*
X5826Y5754D1*
X5823Y5745D1*
X5820Y5737D1*
X5817Y5728D1*
X5813Y5720D1*
X5810Y5712D1*
X5806Y5704D1*
X5802Y5696D1*
X5798Y5688D1*
X5793Y5680D1*
X5789Y5672D1*
X5784Y5664D1*
D1*
X5905Y5516D1*
X5804Y5414D1*
X5655Y5535D1*
X5651Y5533D1*
X5647Y5531D1*
X5644Y5528D1*
X5640Y5526D1*
X5636Y5524D1*
X5632Y5522D1*
X5628Y5520D1*
X5624Y5518D1*
X5620Y5516D1*
X5616Y5514D1*
X5612Y5512D1*
X5608Y5510D1*
X5604Y5508D1*
X5600Y5506D1*
X5595Y5504D1*
D1*
X5511Y5709D1*
X5524Y5715D1*
X5536Y5722D1*
X5548Y5730D1*
X5560Y5739D1*
X5570Y5749D1*
X5580Y5760D1*
X5589Y5771D1*
X5597Y5783D1*
X5604Y5796D1*
X5610Y5809D1*
X5615Y5823D1*
X5619Y5837D1*
X5622Y5851D1*
X5624Y5865D1*
X5625Y5880D1*
D1*
X5617Y5932D1*
X5595Y5980D1*
X5560Y6020D1*
X5515Y6048D1*
X5464Y6062D1*
X5411D1*
X5361Y6046D1*
X5317Y6017D1*
X5283Y5976D1*
X5262Y5927D1*
X5256Y5875D1*
X5265Y5823D1*
X5288Y5775D1*
X5324Y5736D1*
X5369Y5709D1*
D1*
X5285Y5504D1*
X5440Y5880D1*
G37*
M02*
